# xmcd
#
# Track frame offsets:
#	150
#	15373
#	30597
#	48622
#	60179
#	81569
#	95403
#	112288
#	136643
#	153373
#	172606
#	184236
#	201246
#	219571
#
# Disc length: 3083 seconds
#
# Revision: 0
# Processed by: cddbd v1.5.1PL2 Copyright (c) Steve Scherf et al.
# Submitted via: dBpowerAMP V4.0
#
DISCID=b40c090e
DTITLE=Helena Elis - Lugares proibidos
DYEAR=2005
DGENRE=MPB
TTITLE0=FIEL
TTITLE1=TODA MUSICA É BOA
TTITLE2=LUGARES PROIBIDOS
TTITLE3=SONHOS DE MULHER
TTITLE4=NOSSA MUSICA(EVIDENCIAS)
TTITLE5=SE CUIDA
TTITLE6=CAFE DE PADARIA
TTITLE7=TAMBEM TE AMO
TTITLE8=ROTINA, MEUAMOR
TTITLE9=5° GRAU
TTITLE10=AMORES DE FILME
TTITLE11=TCHAU AMOR
TTITLE12=PRA TE DOMINAR
TTITLE13=FRANCISCO
EXTD=
EXTT0=
EXTT1=
EXTT2=
EXTT3=
EXTT4=
EXTT5=
EXTT6=
EXTT7=
EXTT8=
EXTT9=
EXTT10=
EXTT11=
EXTT12=
EXTT13=
PLAYORDER=
